<svg version="1.1" id="Layer_1" xmlns="http://www.w3.org/2000/svg" xmlns:xlink="http://www.w3.org/1999/xlink" x="0px" y="0px"
	 width="100%" viewBox="0 0 649 432" enable-background="new 0 0 649 432" xml:space="preserve">
<path fill="#F0F1F5" opacity="1.000000" stroke="none" 
	d="
M1.000000,432.000000 
	C1.000000,288.373779 1.000000,144.747559 1.000000,1.060666 
	C217.231979,1.060666 433.463989,1.060666 650.000000,1.060666 
	C650.000000,144.024765 650.000000,287.049744 649.681396,430.581726 
	C648.908447,431.725800 648.454224,432.362885 648.000000,433.000000 
	C432.975098,433.000000 217.950180,433.000000 2.351993,432.783569 
	C1.570046,432.308228 1.310477,432.119171 1.000000,432.000000 
M430.120270,298.125549 
	C429.035736,287.413635 427.951233,276.701752 426.845551,265.780823 
	C424.356415,265.780823 422.317261,266.062622 420.386749,265.724487 
	C415.807617,264.922424 414.039429,266.893646 413.099579,271.262970 
	C410.978699,281.122986 408.325897,290.868622 405.562317,301.975952 
	C402.575043,290.155457 399.990631,279.677673 397.211517,269.251831 
	C396.866791,267.958649 395.595123,266.081512 394.568726,265.953552 
	C391.201447,265.533783 387.749237,265.795837 384.252075,265.795837 
	C382.599396,281.882050 381.020325,297.251709 379.408875,312.936584 
	C382.037292,312.936584 384.301666,312.936584 386.865265,312.936584 
	C388.151489,301.023529 389.437927,289.108551 390.724365,277.193542 
	C391.070984,277.193878 391.417603,277.194183 391.764221,277.194519 
	C394.930878,289.178467 398.097565,301.162415 401.240234,313.055603 
	C404.354279,313.055603 406.985413,313.055603 409.869781,313.055603 
	C413.028534,301.217194 416.164886,289.462616 419.301270,277.708069 
	C419.711517,277.738037 420.121765,277.768005 420.532043,277.797974 
	C421.756042,289.444183 422.980072,301.090363 424.212616,312.817505 
	C426.752106,312.817505 429.110016,312.817505 431.698669,312.817505 
	C431.171417,307.942627 430.689545,303.487549 430.120270,298.125549 
M178.737228,271.776276 
	C175.106308,269.889618 171.609512,266.790405 167.816299,266.370789 
	C160.116165,265.518951 152.255737,266.116272 144.298920,266.116272 
	C144.298920,281.766937 144.298920,297.235626 144.298920,312.766998 
	C152.426041,312.766998 160.437439,313.323059 168.330811,312.596649 
	C175.034515,311.979736 180.025360,307.795898 182.382919,301.293243 
	C186.050705,291.176758 185.722763,281.375763 178.737228,271.776276 
M476.986115,278.662170 
	C472.582397,268.428741 465.357269,264.023163 454.607635,265.016785 
	C445.001801,265.904633 438.074158,271.930115 436.513702,282.096405 
	C435.698975,287.404266 435.861084,293.128662 436.913055,298.399231 
	C438.916718,308.437775 446.255890,313.715118 456.745819,313.857849 
	C467.314667,314.001648 475.080536,309.072144 477.084381,299.102692 
	C478.353149,292.790527 477.241638,285.999939 476.986115,278.662170 
M359.612366,300.807098 
	C362.237305,304.678040 364.862244,308.548950 367.728668,312.776001 
	C369.055145,312.776001 371.279541,312.776001 375.088654,312.776001 
	C371.879608,306.331970 369.144226,300.839111 366.382843,295.294006 
	C367.246704,294.594513 368.517578,293.764252 369.544769,292.699005 
	C373.819977,288.265350 375.257965,282.936890 373.522675,277.075958 
	C371.796692,271.246460 367.934265,266.767883 361.757935,266.232819 
	C354.052307,265.565308 346.244934,266.072540 338.324738,266.072540 
	C338.324738,281.868835 338.324738,297.401123 338.324738,312.935303 
	C340.766418,312.935303 342.886322,312.935303 345.649750,312.935303 
	C345.649750,307.662109 345.649750,302.609161 345.649750,297.248077 
	C350.779327,297.439941 355.601990,295.682678 359.612366,300.807098 
M485.834717,294.499573 
	C485.834717,300.608582 485.834717,306.717560 485.834717,312.880371 
	C488.537201,312.880371 490.610321,312.880371 493.282196,312.880371 
	C493.282196,307.552582 493.282196,302.496704 493.282196,297.520203 
	C505.357208,296.392761 510.227814,300.041870 514.357239,312.786560 
	C516.581238,312.786560 518.805237,312.786560 522.803162,312.786560 
	C519.561279,306.287994 516.824463,300.801849 514.072083,295.284607 
	C514.956848,294.554230 516.231873,293.715424 517.242065,292.630127 
	C521.246887,288.327545 523.052856,283.352264 521.339600,277.503632 
	C519.678528,271.833130 516.224487,267.086060 510.328247,266.471191 
	C502.336029,265.637787 494.191620,266.263794 485.834320,266.263794 
	C485.834320,275.538330 485.834320,284.518982 485.834717,294.499573 
M234.774948,285.053558 
	C232.116165,294.250488 229.457367,303.447418 226.779617,312.709900 
	C234.225723,313.736847 234.120728,313.703918 236.123276,307.319489 
	C236.652390,305.632629 237.738739,303.304230 239.100677,302.844391 
	C243.603439,301.323944 248.349167,300.523010 253.323166,299.371521 
	C254.784393,304.257324 256.097870,308.649109 257.341888,312.808624 
	C260.114197,312.808624 262.475464,312.808624 265.089935,312.808624 
	C260.498657,296.921234 256.039551,281.491180 251.499786,265.781921 
	C249.293549,265.781921 247.264694,266.069641 245.350464,265.723419 
	C241.068542,264.948975 239.576569,267.043182 238.758636,270.855316 
	C237.786102,275.388031 236.249832,279.799774 234.774948,285.053558 
M302.966064,276.348022 
	C299.506287,288.430847 296.046509,300.513672 292.595001,312.567596 
	C297.997772,314.324738 300.981995,313.082214 301.859344,307.650574 
	C302.138367,305.923126 303.242493,303.384003 304.553833,302.938873 
	C309.184479,301.366821 314.068634,300.541565 319.030823,299.392792 
	C320.568604,304.420776 321.910126,308.807098 323.160400,312.895081 
	C325.928864,312.895081 328.180328,312.895081 330.811462,312.895081 
	C326.672638,298.470520 322.495331,284.486603 318.724854,270.393860 
	C317.696930,266.551758 315.918427,265.778564 312.192078,265.609772 
	C307.335846,265.389832 304.731354,266.803223 304.195404,271.720001 
	C304.053406,273.022491 303.497803,274.279938 302.966064,276.348022 
M208.491333,313.012115 
	C212.605469,313.012115 216.719604,313.012115 220.815308,313.012115 
	C220.815308,310.333160 220.815308,308.126526 220.815308,305.586792 
	C214.139984,305.586792 207.855682,305.586792 201.417664,305.586792 
	C201.417664,300.823273 201.417664,296.410736 201.417664,291.379944 
	C207.101974,291.379944 212.482819,291.379944 217.804626,291.379944 
	C217.804626,288.677765 217.804626,286.602234 217.804626,283.935059 
	C212.100632,283.935059 206.718124,283.935059 201.454346,283.935059 
	C201.454346,280.086395 201.454346,276.844604 201.454346,273.183960 
	C207.573105,273.183960 213.350662,273.183960 219.278412,273.183960 
	C219.278412,270.542389 219.278412,268.334869 219.278412,266.034576 
	C210.676697,266.034576 202.427475,266.034576 193.980835,266.034576 
	C193.980835,281.710114 193.980835,297.137146 193.980835,313.012115 
	C198.583603,313.012115 203.041687,313.012115 208.491333,313.012115 
M126.104706,266.767517 
	C126.104706,282.144867 126.104706,297.522217 126.104706,312.872498 
	C128.713333,312.872498 130.796799,312.872498 132.973297,312.872498 
	C132.973297,297.104980 132.973297,281.626312 132.973297,266.018768 
	C130.634949,266.018768 128.668854,266.018768 126.104706,266.767517 
M369.036041,219.488876 
	C373.981079,222.446991 378.206909,221.972687 380.800079,218.168442 
	C383.107178,214.783936 382.541199,210.057449 379.313202,207.379715 
	C376.249878,204.838577 372.821777,204.920639 369.703766,207.116547 
	C365.911774,209.787064 365.606232,214.145569 369.036041,219.488876 
M328.155273,85.094025 
	C321.638428,81.453735 314.655914,87.192894 316.316772,92.876228 
	C317.099121,95.553345 320.053162,98.918304 322.528198,99.405457 
	C324.991547,99.890305 328.941315,97.853714 330.709229,95.678932 
	C333.458893,92.296516 331.947083,88.472771 328.155273,85.094025 
M271.299622,120.469002 
	C278.040375,121.212540 282.631500,117.062431 281.270447,111.293900 
	C280.399109,107.600792 278.235260,105.141220 274.100555,104.892151 
	C269.984497,104.644188 267.331573,106.739967 266.186676,110.341599 
	C264.808533,114.676949 266.306732,118.154129 271.299622,120.469002 
M369.330261,106.589935 
	C368.641174,107.518341 367.775055,108.363945 367.295074,109.390160 
	C365.623505,112.964287 366.256195,116.209724 369.214966,118.825432 
	C372.015289,121.301079 375.187958,121.603569 378.384705,119.648796 
	C381.791962,117.565323 382.806274,114.332405 381.883820,110.609825 
	C380.596069,105.412979 375.969025,103.738762 369.330261,106.589935 
M318.383789,240.014282 
	C322.076263,243.213013 325.889832,243.328217 329.460175,240.015930 
	C332.532501,237.165619 332.812622,233.629303 330.579559,230.141953 
	C328.288239,226.563629 324.785980,225.929214 320.996948,227.201859 
	C316.124481,228.838409 314.912415,233.873840 318.383789,240.014282 
M249.639832,156.065781 
	C245.013992,159.177628 243.784668,162.717819 245.902283,166.829086 
	C247.772400,170.459839 251.702957,171.921997 255.552704,170.419067 
	C259.334320,168.942703 261.337860,165.061432 260.263947,161.292389 
	C258.944336,156.661057 255.703232,154.875183 249.639832,156.065781 
M401.827301,158.962158 
	C397.241272,154.254486 391.838104,154.106674 388.871155,158.652191 
	C386.592621,162.143112 386.822571,165.698044 389.640289,168.612549 
	C392.275299,171.338043 395.713593,172.020203 399.126221,169.904526 
	C403.075928,167.455887 404.034790,163.942322 401.827301,158.962158 
M275.667877,206.035965 
	C268.833740,204.193466 264.358765,211.039154 266.257812,216.133499 
	C267.581207,219.683624 270.322815,221.511719 273.942108,221.347992 
	C277.543610,221.185104 280.236633,219.260147 281.117950,215.495956 
	C282.150055,211.087601 280.293091,208.119675 275.667877,206.035965 
M321.511719,109.020912 
	C320.497314,111.243050 318.177795,113.980270 318.799896,115.556519 
	C319.571991,117.512787 322.753662,119.611794 324.939514,119.661232 
	C328.256836,119.736259 330.278198,116.804672 329.620758,113.385330 
	C328.883179,109.549232 326.226715,107.851540 321.511719,109.020912 
M377.786163,166.241150 
	C379.542725,162.644989 378.920868,159.303024 375.108704,158.150330 
	C373.159088,157.560806 369.480316,158.647949 368.444550,160.210907 
	C367.401672,161.784637 367.819489,165.567596 369.106567,167.170959 
	C371.384369,170.008469 374.672729,169.591507 377.786163,166.241150 
M269.980438,160.562973 
	C270.375366,162.843796 270.195404,165.508148 271.369995,167.268875 
	C272.136169,168.417404 275.278839,169.109024 276.621460,168.467072 
	C278.414093,167.609924 280.342682,165.386795 280.620453,163.514130 
	C280.858887,161.906815 279.086304,158.681839 277.800629,158.455246 
	C275.460236,158.042740 272.821533,159.322952 269.980438,160.562973 
M363.714081,131.246460 
	C363.065247,128.769424 362.966003,125.880951 361.544617,123.982277 
	C360.790771,122.975281 357.475830,123.051598 355.785461,123.758698 
	C352.578186,125.100342 351.923309,129.458084 354.038788,132.173981 
	C356.301056,135.078339 359.704529,134.954132 363.714081,131.246460 
M327.234100,216.876022 
	C330.214752,214.260498 331.044464,210.940750 328.008606,208.355133 
	C326.454193,207.031250 322.656433,206.571518 321.049622,207.585831 
	C319.499786,208.564194 318.465515,212.198715 318.983490,214.207779 
	C319.896698,217.750092 322.983887,218.774933 327.234100,216.876022 
M288.050262,134.152328 
	C293.789154,133.995148 297.027283,129.902374 294.242249,125.920448 
	C293.148560,124.356766 290.400391,122.908211 288.640259,123.145714 
	C286.879089,123.383362 284.086273,125.820534 284.116882,127.242516 
	C284.165863,129.518204 286.172882,131.751755 288.050262,134.152328 
M361.356079,202.945221 
	C364.416290,200.784332 365.564972,197.658676 363.196960,194.857910 
	C361.868530,193.286697 358.237732,192.086655 356.559387,192.818390 
	C354.789825,193.589905 353.001221,196.961136 353.188263,199.017654 
	C353.558746,203.091309 356.853058,204.119522 361.356079,202.945221 
M284.114410,195.506577 
	C283.053314,199.025131 283.723114,202.301056 287.502502,203.014481 
	C289.562561,203.403351 292.754150,202.168900 294.172607,200.555984 
	C296.275208,198.165161 295.304962,195.112625 292.657318,193.189438 
	C289.440826,190.853058 286.726837,191.956497 284.114410,195.506577 
M229.093704,325.961670 
	C229.093704,330.189880 229.093704,334.418091 229.093704,338.646332 
	C229.530090,338.642792 229.966476,338.639252 230.402863,338.635712 
	C230.781036,336.748505 231.159225,334.861328 231.697845,332.173553 
	C233.844894,335.014069 235.371445,337.033661 236.897980,339.053253 
	C237.233994,338.805511 237.570007,338.557770 237.906006,338.310059 
	C237.103683,336.601410 236.301376,334.892792 235.977737,334.203583 
	C236.684235,331.382050 238.151764,328.745728 237.407791,327.731293 
	C236.311554,326.236542 233.661865,325.834656 231.623917,325.107178 
	C231.062866,324.906891 230.324142,325.204315 229.093704,325.961670 
M308.389008,336.173676 
	C311.431305,336.549774 314.473633,336.925842 317.819153,337.339417 
	C316.294037,333.792633 314.372528,329.324005 312.451019,324.855377 
	C311.960999,324.887390 311.471008,324.919403 310.981018,324.951416 
	C309.045868,329.424866 307.110748,333.898315 305.175629,338.371765 
	C305.559906,338.571045 305.944214,338.770325 306.328491,338.969604 
	C306.906647,338.277039 307.484802,337.584473 308.389008,336.173676 
M464.632721,325.067871 
	C463.907867,325.569275 462.577972,326.044098 462.554596,326.576355 
	C462.378052,330.593933 462.458191,334.622772 462.458191,338.562653 
	C470.113892,339.266144 473.771393,337.259857 474.174316,332.608490 
	C474.585907,327.857483 471.884644,325.511810 464.632721,325.067871 
M188.972015,325.727570 
	C186.308014,325.482941 183.643997,325.238312 180.777283,324.975067 
	C180.777283,329.983154 180.777283,334.231323 180.777283,338.357239 
	C183.866074,338.357239 186.627533,338.357239 189.388977,338.357239 
	C189.401505,338.010437 189.414017,337.663635 189.426544,337.316803 
	C187.267487,337.091339 185.108444,336.865875 183.007202,336.646423 
	C181.166077,330.496582 187.830292,334.631165 188.712570,331.369324 
	C186.750168,331.112091 184.899323,330.869476 183.048462,330.626862 
	C182.761627,330.240662 182.474792,329.854462 182.187958,329.468231 
	C183.203735,328.665863 184.116959,327.628784 185.264267,327.127502 
	C186.400238,326.631165 187.772339,326.675293 188.972015,325.727570 
M338.799530,338.934692 
	C341.067841,338.793762 343.336151,338.652832 345.604462,338.511932 
	C345.585754,338.110077 345.567017,337.708221 345.548309,337.306366 
	C343.352081,337.048279 341.155853,336.790222 339.091187,336.547607 
	C337.285126,330.428192 344.272247,334.863373 344.701324,331.664734 
	C343.291107,329.713806 337.642456,332.946625 339.243256,327.221039 
	C341.497589,327.089996 343.336029,326.983124 345.174469,326.876221 
	C345.155243,326.453217 345.135986,326.030182 345.116760,325.607178 
	C342.408173,325.607178 339.699585,325.607178 335.942322,325.607178 
	C336.631195,330.171295 337.288361,334.525421 338.799530,338.934692 
M213.645233,337.769684 
	C216.070618,337.679260 220.288788,338.252747 220.610733,337.383362 
	C221.997162,333.639435 222.240311,329.472137 222.899780,325.459015 
	C222.170639,325.373779 221.441483,325.288513 220.712341,325.203247 
	C220.573792,327.716980 220.778427,330.317169 220.174500,332.713623 
	C219.780365,334.277618 218.212311,335.545807 217.170105,336.946503 
	C216.114029,335.545563 214.527100,334.280243 214.126266,332.711823 
	C213.524796,330.358215 213.755249,327.792023 213.631943,325.316223 
	C212.961716,325.384216 212.291473,325.452179 211.621231,325.520172 
	C212.109299,329.402863 212.597366,333.285583 213.645233,337.769684 
M393.013702,327.042267 
	C392.724182,326.443695 392.434631,325.845123 392.145111,325.246552 
	C391.012512,327.513428 391.410492,329.695465 390.899506,331.638428 
	C390.398102,333.544800 389.163513,336.548065 387.916504,336.725861 
	C384.237854,337.250366 384.761871,333.903534 384.559753,331.505432 
	C384.387360,329.460571 384.223785,327.414948 384.056335,325.369690 
	C383.582184,325.400848 383.108032,325.431976 382.633881,325.463135 
	C382.633881,328.371918 381.970520,331.504150 382.850586,334.116455 
	C383.515686,336.090607 386.227386,338.735321 387.892517,338.642639 
	C389.676208,338.543427 391.795776,335.840576 392.835968,333.798828 
	C393.643707,332.213348 393.017914,329.897552 393.013702,327.042267 
M415.862213,334.521393 
	C419.369934,339.997681 423.548187,340.693695 426.131165,336.959808 
	C423.743011,336.392456 420.851379,336.253143 418.677429,334.932434 
	C417.745392,334.366272 417.514587,330.247375 418.342255,329.649719 
	C420.504547,328.088257 423.426575,327.578857 426.440582,326.509949 
	C424.611633,324.621735 422.059448,324.392181 419.427948,325.603119 
	C415.977173,327.191040 414.629974,330.003510 415.862213,334.521393 
M280.425476,331.027008 
	C279.598511,330.158173 278.771576,329.289337 277.944611,328.420502 
	C279.595825,327.759796 281.247040,327.099091 282.898254,326.438385 
	C280.777863,325.565247 277.737610,325.084351 276.797821,326.269348 
	C271.875763,332.475494 280.837433,331.885895 282.055023,336.213745 
	C279.654388,336.474426 277.571869,336.700562 274.728760,337.009277 
	C278.142578,340.049591 280.996338,339.520844 283.097931,337.185822 
	C285.349640,334.684082 283.722687,332.654449 280.425476,331.027008 
M372.495605,330.810028 
	C371.855194,330.121002 371.214783,329.431946 370.574371,328.742920 
	C372.366150,327.940399 374.157959,327.137848 376.178497,326.232849 
	C373.373932,324.279114 370.660583,324.189789 368.865997,327.016205 
	C366.882446,330.140167 369.161530,331.737335 371.831268,333.032776 
	C372.837708,333.521149 373.510376,334.697449 374.335205,335.560089 
	C373.079681,335.968109 371.842712,336.457458 370.560852,336.750122 
	C369.911804,336.898254 369.181610,336.690948 368.488098,336.644348 
	C368.408325,337.162201 368.328522,337.680054 368.248749,338.197876 
	C370.053009,338.361298 372.000061,339.009949 373.616241,338.534302 
	C374.904480,338.155212 376.858551,336.084229 376.632233,335.329193 
	C376.147614,333.712219 374.443665,332.460693 372.495605,330.810028 
M438.975586,325.082581 
	C437.061798,325.082581 435.148010,325.082581 433.230530,325.082581 
	C433.230530,330.045258 433.230530,334.277435 433.230530,338.971100 
	C436.314545,338.830597 439.049927,338.705994 441.785309,338.581390 
	C441.783539,338.144043 441.781769,337.706726 441.779968,337.269379 
	C439.611603,337.072113 437.443237,336.874847 435.345947,336.684021 
	C433.396667,330.511993 440.076508,334.608612 440.965759,331.363098 
	C439.006134,331.106293 437.170624,330.865784 435.205933,330.608337 
	C433.917023,324.361053 440.363098,328.881348 441.515472,325.759277 
	C440.903809,325.523468 440.353607,325.311310 438.975586,325.082581 
M450.083649,327.726166 
	C452.178894,327.323517 454.274139,326.920898 456.369385,326.518280 
	C456.345978,326.211945 456.322571,325.905579 456.299164,325.599243 
	C453.582916,325.599243 450.866699,325.599243 448.226013,325.599243 
	C448.226013,330.110687 448.226013,334.336761 448.226013,339.005249 
	C451.329041,338.837555 454.047729,338.690643 456.766388,338.543701 
	C456.756927,338.122894 456.747437,337.702087 456.737976,337.281281 
	C454.548859,337.065460 452.359741,336.849670 450.279816,336.644623 
	C448.387665,330.459015 455.131836,334.677673 455.711670,332.265259 
	C453.635620,330.939270 451.785309,329.757446 450.083649,327.726166 
M248.444916,327.066986 
	C249.761841,326.934753 251.078766,326.802521 252.395691,326.670319 
	C252.359940,326.300049 252.324173,325.929779 252.288422,325.559509 
	C249.677750,325.559509 247.067093,325.559509 244.244415,325.559509 
	C244.244415,329.918213 244.244415,334.260742 244.244415,339.047302 
	C247.363815,338.852112 250.073456,338.682526 252.783081,338.512970 
	C252.767639,338.104401 252.752197,337.695831 252.736755,337.287231 
	C250.532104,337.054626 248.327454,336.822021 246.257599,336.603607 
	C244.384995,330.431305 251.217636,334.740204 251.912704,331.320679 
	C249.948074,331.076111 248.080414,330.843628 246.042328,330.589905 
	C246.042328,329.597046 245.859802,328.733917 246.110046,328.023193 
	C246.262863,327.589203 247.081223,327.389526 248.444916,327.066986 
M197.477097,334.755005 
	C196.308395,327.994507 197.447845,326.966248 206.064896,327.373199 
	C203.927383,324.284271 200.898651,324.113464 198.739746,325.807220 
	C196.825867,327.308807 194.769562,330.432465 195.081284,332.490997 
	C195.436569,334.837067 198.008408,337.372162 200.275864,338.699005 
	C201.551483,339.445496 204.156357,337.920410 206.662094,337.293671 
	C202.980789,336.489075 200.480881,335.942657 197.477097,334.755005 
M399.093018,334.499756 
	C402.781219,340.050598 407.114594,340.756866 409.674133,336.224304 
	C403.740112,337.561371 401.161469,336.568939 400.971313,332.620514 
	C400.642365,325.788696 405.610138,327.098267 409.914948,326.702911 
	C407.513794,325.723572 404.982727,325.010345 402.887207,325.673462 
	C399.142822,326.858368 398.253052,330.101868 399.093018,334.499756 
M300.043396,337.819733 
	C300.921875,334.861206 299.415894,336.125458 298.050507,336.597412 
	C294.491974,337.827393 291.726990,336.397430 291.621948,332.822083 
	C291.555634,330.565857 293.584229,328.248077 294.518890,326.282288 
	C291.145081,325.989410 288.498535,328.698914 289.191956,332.963562 
	C289.971252,337.756378 293.853943,339.744904 300.043396,337.819733 
M168.644943,329.886230 
	C167.158844,324.120697 173.236038,329.162018 173.915710,325.964783 
	C171.156830,324.524506 168.354172,324.065338 166.588104,327.053040 
	C164.733917,330.189819 167.064621,331.679016 169.686325,333.104004 
	C170.788040,333.702850 171.158096,335.647797 172.192093,337.609375 
	C172.203247,337.600861 173.941330,336.930267 174.224274,335.871033 
	C174.511368,334.796234 173.637268,333.088806 172.761459,332.119476 
	C171.937592,331.207611 170.448090,330.897156 168.644943,329.886230 
M329.816498,336.924683 
	C328.420959,336.798859 327.025421,336.673035 325.689301,336.552582 
	C325.449524,332.436005 325.241333,328.861847 325.033173,325.287659 
	C324.589447,325.315094 324.145721,325.342529 323.701996,325.369965 
	C323.701996,329.789246 323.701996,334.208496 323.701996,338.910645 
	C326.034851,338.910645 328.013733,338.979553 329.975464,338.827393 
	C330.233948,338.807312 330.404785,337.657806 329.816498,336.924683 
M263.661194,138.063477 
	C264.625549,139.696732 265.379395,141.546661 266.691772,142.821747 
	C267.051819,143.171616 269.604553,142.116623 270.202820,141.130814 
	C270.805878,140.137115 270.761841,138.026398 270.069092,137.108871 
	C268.128418,134.538406 265.872894,135.159912 263.661194,138.063477 
M297.619781,217.080261 
	C297.578796,218.951706 297.131012,220.963501 297.703644,222.623260 
	C297.922638,223.258087 301.046478,223.770538 301.826874,223.118423 
	C302.903320,222.218903 303.872589,219.262726 303.368011,218.781738 
	C302.135742,217.607071 300.030121,217.348618 297.619781,217.080261 
M382.090149,136.440247 
	C380.502411,137.447067 378.671844,138.243835 377.494141,139.605316 
	C377.191956,139.954727 378.680298,142.719681 379.839844,143.212082 
	C380.904602,143.664246 383.811981,142.644104 383.855103,142.107666 
	C383.995056,140.366791 383.192871,138.550171 382.090149,136.440247 
M384.038208,185.383835 
	C382.200928,184.927292 380.338043,184.110916 378.542328,184.238678 
	C378.019714,184.275864 377.001556,187.288086 377.463135,188.430542 
	C377.927948,189.580994 380.781860,191.047897 381.143250,190.730408 
	C382.505371,189.533829 383.278656,187.666946 384.038208,185.383835 
M346.215485,102.968414 
	C345.751068,104.790634 344.878754,106.651596 345.046173,108.413795 
	C345.103821,109.020645 348.007568,110.074799 349.148773,109.658150 
	C350.278076,109.245857 351.778442,106.471352 351.452911,106.064789 
	C350.323608,104.654488 348.471130,103.823303 346.215485,102.968414 
M322.919403,130.308624 
	C322.117828,131.763123 320.938782,133.156097 320.687073,134.700241 
	C320.575165,135.386932 322.484070,137.195679 323.210968,137.061447 
	C324.724731,136.781860 326.899902,135.832748 327.303589,134.647842 
	C328.244049,131.887436 326.437012,130.384613 322.919403,130.308624 
M297.135956,104.891716 
	C298.122955,106.551071 298.896729,108.436852 300.248016,109.709389 
	C300.582733,110.024612 303.454132,108.640991 303.947723,107.509590 
	C304.429657,106.404991 303.542999,103.454849 302.941101,103.361908 
	C301.194977,103.092308 299.290222,103.850258 297.135956,104.891716 
M302.091797,180.514618 
	C301.540161,182.411133 300.988525,184.307632 300.436859,186.204132 
	C301.934357,186.461731 303.538300,187.151031 304.890198,186.817825 
	C305.724030,186.612320 306.951477,184.325211 306.652191,183.879730 
	C305.692841,182.451935 304.104614,181.446686 302.091797,180.514618 
M348.891083,223.546814 
	C349.344879,221.730194 350.153931,219.889114 350.031555,218.112167 
	C349.995789,217.592987 347.047455,216.586243 345.908905,217.027679 
	C344.804962,217.455704 343.372284,220.169250 343.725342,220.635101 
	C344.791077,222.041275 346.654663,222.842712 348.891083,223.546814 
M347.516479,181.770660 
	C345.819672,181.629959 343.923187,180.990952 342.509674,181.557297 
	C341.795380,181.843475 341.295532,184.735474 341.900757,185.674820 
	C342.533752,186.657272 345.362488,187.509232 345.897766,187.004333 
	C347.029724,185.936646 347.293030,183.948029 347.516479,181.770660 
M354.215973,166.760712 
	C355.030975,165.067017 356.093658,163.425537 356.470306,161.639420 
	C356.554443,161.240326 354.161957,159.711716 353.035797,159.836975 
	C351.928894,159.960068 349.964874,161.981125 350.142670,162.377670 
	C350.887573,164.039078 352.295441,165.403259 354.215973,166.760712 
M327.108368,194.447174 
	C326.270355,192.647812 325.432373,190.848450 324.594391,189.049072 
	C323.219025,189.986374 321.521210,190.692856 320.611542,191.963531 
	C320.190094,192.552231 321.077576,195.071671 321.768036,195.259567 
	C323.290222,195.673859 325.063965,195.163681 327.108368,194.447174 
M291.489502,161.369080 
	C292.149414,163.123138 292.602081,165.018982 293.629822,166.521469 
	C293.857758,166.854736 296.632935,166.180130 297.294647,165.278946 
	C297.977325,164.349182 297.859772,161.477524 297.490936,161.361130 
	C295.760773,160.815109 293.823456,160.925491 291.489502,161.369080 
M268.061493,189.979324 
	C270.847992,188.275543 271.902618,186.090790 269.052277,183.734528 
	C268.166779,183.002518 266.120789,182.975250 264.978149,183.475372 
	C264.069855,183.872925 262.950073,186.098465 263.281769,186.582886 
	C264.259735,188.011185 265.912231,188.977646 268.061493,189.979324 
M302.724182,138.910645 
	C301.774750,140.482513 300.570709,141.978348 300.062073,143.681824 
	C299.940948,144.087524 302.287384,145.957138 303.243622,145.779510 
	C304.536194,145.539368 306.679077,143.699203 306.512451,143.029007 
	C306.130005,141.490753 304.570282,140.245193 302.724182,138.910645 
M348.301727,142.394226 
	C346.864258,141.248886 345.539917,139.841461 343.911469,139.138565 
	C343.493286,138.958054 341.317505,141.045929 341.374176,142.007721 
	C341.451721,143.323608 343.015686,145.679138 343.721741,145.600723 
	C345.286530,145.426941 346.713684,144.014008 348.301727,142.394226 
M361.439636,177.230133 
	C361.602875,178.872330 361.766113,180.514542 361.929352,182.156723 
	C363.209991,181.488113 364.490631,180.819519 365.771301,180.150925 
	C364.529419,179.082825 363.287506,178.014709 361.439636,177.230133 
M283.931000,149.232300 
	C285.160828,148.181366 286.390625,147.130447 287.620453,146.079514 
	C286.453918,145.430069 284.998291,143.984238 284.175842,144.282761 
	C281.848877,145.127396 281.438293,146.968185 283.931000,149.232300 
M337.720764,203.943527 
	C339.601807,205.853210 341.424805,205.628693 342.321381,203.223251 
	C342.619476,202.423599 341.449310,200.242294 340.585632,200.001602 
	C338.072998,199.301392 336.889740,200.701141 337.720764,203.943527 
z"/>
<path fill="#FFFFFF" opacity="1.000000" stroke="none" 
	d="
M648.500000,433.000000 
	C648.454224,432.362885 648.908447,431.725800 649.681396,431.044373 
	C649.666626,431.666656 649.333313,432.333313 648.500000,433.000000 
z"/>
<path fill="#FFFFFF" opacity="1.000000" stroke="none" 
	d="
M1.000000,432.500000 
	C1.310477,432.119171 1.570046,432.308228 1.889354,432.783569 
	C1.666667,433.000000 1.333333,433.000000 1.000000,432.500000 
z"/>
<path fill="#2C5389" opacity="1.000000" stroke="none" 
	d="
M430.164001,298.578979 
	C430.689545,303.487549 431.171417,307.942627 431.698669,312.817505 
	C429.110016,312.817505 426.752106,312.817505 424.212616,312.817505 
	C422.980072,301.090363 421.756042,289.444183 420.532043,277.797974 
	C420.121765,277.768005 419.711517,277.738037 419.301270,277.708069 
	C416.164886,289.462616 413.028534,301.217194 409.869781,313.055603 
	C406.985413,313.055603 404.354279,313.055603 401.240234,313.055603 
	C398.097565,301.162415 394.930878,289.178467 391.764221,277.194519 
	C391.417603,277.194183 391.070984,277.193878 390.724365,277.193542 
	C389.437927,289.108551 388.151489,301.023529 386.865265,312.936584 
	C384.301666,312.936584 382.037292,312.936584 379.408875,312.936584 
	C381.020325,297.251709 382.599396,281.882050 384.252075,265.795837 
	C387.749237,265.795837 391.201447,265.533783 394.568726,265.953552 
	C395.595123,266.081512 396.866791,267.958649 397.211517,269.251831 
	C399.990631,279.677673 402.575043,290.155457 405.562317,301.975952 
	C408.325897,290.868622 410.978699,281.122986 413.099579,271.262970 
	C414.039429,266.893646 415.807617,264.922424 420.386749,265.724487 
	C422.317261,266.062622 424.356415,265.780823 426.845551,265.780823 
	C427.951233,276.701752 429.035736,287.413635 430.164001,298.578979 
z"/>
<path fill="#2D548A" opacity="1.000000" stroke="none" 
	d="
M178.983856,272.041138 
	C185.722763,281.375763 186.050705,291.176758 182.382919,301.293243 
	C180.025360,307.795898 175.034515,311.979736 168.330811,312.596649 
	C160.437439,313.323059 152.426041,312.766998 144.298920,312.766998 
	C144.298920,297.235626 144.298920,281.766937 144.298920,266.116272 
	C152.255737,266.116272 160.116165,265.518951 167.816299,266.370789 
	C171.609512,266.790405 175.106308,269.889618 178.983856,272.041138 
M177.081802,288.559967 
	C176.942886,275.571289 170.521210,271.193817 152.121552,273.839142 
	C152.121552,284.373230 152.121552,294.905914 152.121552,305.389191 
	C170.721466,307.604523 176.602112,303.787659 177.081802,288.559967 
z"/>
<path fill="#2D548A" opacity="1.000000" stroke="none" 
	d="
M477.091888,279.043030 
	C477.241638,285.999939 478.353149,292.790527 477.084381,299.102692 
	C475.080536,309.072144 467.314667,314.001648 456.745819,313.857849 
	C446.255890,313.715118 438.916718,308.437775 436.913055,298.399231 
	C435.861084,293.128662 435.698975,287.404266 436.513702,282.096405 
	C438.074158,271.930115 445.001801,265.904633 454.607635,265.016785 
	C465.357269,264.023163 472.582397,268.428741 477.091888,279.043030 
M469.890137,297.964020 
	C470.180847,293.363098 471.136475,288.685089 470.613861,284.178497 
	C469.724701,276.510956 464.952271,272.759247 457.471802,272.643860 
	C449.759735,272.524963 445.228729,275.854309 443.863861,283.568665 
	C443.187714,287.390137 443.222565,291.520782 443.871521,295.353058 
	C445.024780,302.163147 448.657440,305.486206 454.421997,306.163788 
	C462.281342,307.087585 466.184204,305.172882 469.890137,297.964020 
z"/>
<path fill="#2A5188" opacity="1.000000" stroke="none" 
	d="
M359.350769,300.540924 
	C355.601990,295.682678 350.779327,297.439941 345.649750,297.248077 
	C345.649750,302.609161 345.649750,307.662109 345.649750,312.935303 
	C342.886322,312.935303 340.766418,312.935303 338.324738,312.935303 
	C338.324738,297.401123 338.324738,281.868835 338.324738,266.072540 
	C346.244934,266.072540 354.052307,265.565308 361.757935,266.232819 
	C367.934265,266.767883 371.796692,271.246460 373.522675,277.075958 
	C375.257965,282.936890 373.819977,288.265350 369.544769,292.699005 
	C368.517578,293.764252 367.246704,294.594513 366.382843,295.294006 
	C369.144226,300.839111 371.879608,306.331970 375.088654,312.776001 
	C371.279541,312.776001 369.055145,312.776001 367.728668,312.776001 
	C364.862244,308.548950 362.237305,304.678040 359.350769,300.540924 
M357.103973,290.010376 
	C363.665619,289.242554 367.229614,285.981964 366.867584,281.077942 
	C366.495483,276.037445 363.009827,273.300140 356.627502,273.159851 
	C353.031952,273.080841 349.433197,273.145599 345.616577,273.145599 
	C345.616577,279.019897 345.616577,284.262268 345.616577,290.011719 
	C349.303345,290.011719 352.749298,290.011719 357.103973,290.010376 
z"/>
<path fill="#285087" opacity="1.000000" stroke="none" 
	d="
M485.834534,293.999634 
	C485.834320,284.518982 485.834320,275.538330 485.834320,266.263794 
	C494.191620,266.263794 502.336029,265.637787 510.328247,266.471191 
	C516.224487,267.086060 519.678528,271.833130 521.339600,277.503632 
	C523.052856,283.352264 521.246887,288.327545 517.242065,292.630127 
	C516.231873,293.715424 514.956848,294.554230 514.072083,295.284607 
	C516.824463,300.801849 519.561279,306.287994 522.803162,312.786560 
	C518.805237,312.786560 516.581238,312.786560 514.352478,312.790283 
	C510.227814,300.041870 505.357208,296.392761 493.282196,297.520203 
	C493.282196,302.496704 493.282196,307.552582 493.282196,312.880371 
	C490.610321,312.880371 488.537201,312.880371 485.834717,312.880371 
	C485.834717,306.717560 485.834717,300.608582 485.834534,293.999634 
M514.368652,282.982513 
	C514.190674,276.222168 511.796387,273.524475 505.312469,273.200439 
	C501.399841,273.004883 497.469482,273.164429 493.437073,273.164429 
	C493.437073,279.078064 493.437073,284.420227 493.437073,289.992249 
	C497.749695,289.992249 501.715363,290.139832 505.665039,289.951599 
	C509.780640,289.755432 512.986694,288.022125 514.368652,282.982513 
z"/>
<path fill="#2C5389" opacity="1.000000" stroke="none" 
	d="
M234.866394,284.658752 
	C236.249832,279.799774 237.786102,275.388031 238.758636,270.855316 
	C239.576569,267.043182 241.068542,264.948975 245.350464,265.723419 
	C247.264694,266.069641 249.293549,265.781921 251.499786,265.781921 
	C256.039551,281.491180 260.498657,296.921234 265.089935,312.808624 
	C262.475464,312.808624 260.114197,312.808624 257.341888,312.808624 
	C256.097870,308.649109 254.784393,304.257324 253.323166,299.371521 
	C248.349167,300.523010 243.603439,301.323944 239.100677,302.844391 
	C237.738739,303.304230 236.652390,305.632629 236.123276,307.319489 
	C234.120728,313.703918 234.225723,313.736847 226.779617,312.709900 
	C229.457367,303.447418 232.116165,294.250488 234.866394,284.658752 
M242.462967,284.944824 
	C241.613556,288.052185 240.764160,291.159546 239.718109,294.986328 
	C244.050491,293.837067 247.580292,292.900696 251.347992,291.901215 
	C249.587372,285.849731 248.007126,280.418243 246.426895,274.986755 
	C246.070587,274.990295 245.714294,274.993835 245.357986,274.997406 
	C244.488098,278.060913 243.618210,281.124420 242.462967,284.944824 
z"/>
<path fill="#2C5389" opacity="1.000000" stroke="none" 
	d="
M303.049072,275.953033 
	C303.497803,274.279938 304.053406,273.022491 304.195404,271.720001 
	C304.731354,266.803223 307.335846,265.389832 312.192078,265.609772 
	C315.918427,265.778564 317.696930,266.551758 318.724854,270.393860 
	C322.495331,284.486603 326.672638,298.470520 330.811462,312.895081 
	C328.180328,312.895081 325.928864,312.895081 323.160400,312.895081 
	C321.910126,308.807098 320.568604,304.420776 319.030823,299.392792 
	C314.068634,300.541565 309.184479,301.366821 304.553833,302.938873 
	C303.242493,303.384003 302.138367,305.923126 301.859344,307.650574 
	C300.981995,313.082214 297.997772,314.324738 292.595001,312.567596 
	C296.046509,300.513672 299.506287,288.430847 303.049072,275.953033 
M307.096344,288.626373 
	C306.668976,290.498108 306.241608,292.369843 305.653625,294.944916 
	C309.912048,293.798615 313.445557,292.847412 317.095642,291.864868 
	C315.261810,285.593567 313.618225,279.972900 311.641388,273.212555 
	C309.945068,278.950958 308.629700,283.400604 307.096344,288.626373 
z"/>
<path fill="#2A5188" opacity="1.000000" stroke="none" 
	d="
M207.995544,313.012115 
	C203.041687,313.012115 198.583603,313.012115 193.980835,313.012115 
	C193.980835,297.137146 193.980835,281.710114 193.980835,266.034576 
	C202.427475,266.034576 210.676697,266.034576 219.278412,266.034576 
	C219.278412,268.334869 219.278412,270.542389 219.278412,273.183960 
	C213.350662,273.183960 207.573105,273.183960 201.454346,273.183960 
	C201.454346,276.844604 201.454346,280.086395 201.454346,283.935059 
	C206.718124,283.935059 212.100632,283.935059 217.804626,283.935059 
	C217.804626,286.602234 217.804626,288.677765 217.804626,291.379944 
	C212.482819,291.379944 207.101974,291.379944 201.417664,291.379944 
	C201.417664,296.410736 201.417664,300.823273 201.417664,305.586792 
	C207.855682,305.586792 214.139984,305.586792 220.815308,305.586792 
	C220.815308,308.126526 220.815308,310.333160 220.815308,313.012115 
	C216.719604,313.012115 212.605469,313.012115 207.995544,313.012115 
z"/>
<path fill="#264E86" opacity="1.000000" stroke="none" 
	d="
M126.403732,266.393127 
	C128.668854,266.018768 130.634949,266.018768 132.973297,266.018768 
	C132.973297,281.626312 132.973297,297.104980 132.973297,312.872498 
	C130.796799,312.872498 128.713333,312.872498 126.104706,312.872498 
	C126.104706,297.522217 126.104706,282.144867 126.403732,266.393127 
z"/>
<path fill="#0878E5" opacity="1.000000" stroke="none" 
	d="
M368.769592,219.224976 
	C365.606232,214.145569 365.911774,209.787064 369.703766,207.116547 
	C372.821777,204.920639 376.249878,204.838577 379.313202,207.379715 
	C382.541199,210.057449 383.107178,214.783936 380.800079,218.168442 
	C378.206909,221.972687 373.981079,222.446991 368.769592,219.224976 
z"/>
<path fill="#0B7AE5" opacity="1.000000" stroke="none" 
	d="
M328.470642,85.321030 
	C331.947083,88.472771 333.458893,92.296516 330.709229,95.678932 
	C328.941315,97.853714 324.991547,99.890305 322.528198,99.405457 
	C320.053162,98.918304 317.099121,95.553345 316.316772,92.876228 
	C314.655914,87.192894 321.638428,81.453735 328.470642,85.321030 
z"/>
<path fill="#0677E4" opacity="1.000000" stroke="none" 
	d="
M270.948669,120.315155 
	C266.306732,118.154129 264.808533,114.676949 266.186676,110.341599 
	C267.331573,106.739967 269.984497,104.644188 274.100555,104.892151 
	C278.235260,105.141220 280.399109,107.600792 281.270447,111.293900 
	C282.631500,117.062431 278.040375,121.212540 270.948669,120.315155 
z"/>
<path fill="#0677E4" opacity="1.000000" stroke="none" 
	d="
M369.631226,106.343300 
	C375.969025,103.738762 380.596069,105.412979 381.883820,110.609825 
	C382.806274,114.332405 381.791962,117.565323 378.384705,119.648796 
	C375.187958,121.603569 372.015289,121.301079 369.214966,118.825432 
	C366.256195,116.209724 365.623505,112.964287 367.295074,109.390160 
	C367.775055,108.363945 368.641174,107.518341 369.631226,106.343300 
z"/>
<path fill="#0677E4" opacity="1.000000" stroke="none" 
	d="
M318.126221,239.737762 
	C314.912415,233.873840 316.124481,228.838409 320.996948,227.201859 
	C324.785980,225.929214 328.288239,226.563629 330.579559,230.141953 
	C332.812622,233.629303 332.532501,237.165619 329.460175,240.015930 
	C325.889832,243.328217 322.076263,243.213013 318.126221,239.737762 
z"/>
<path fill="#0878E5" opacity="1.000000" stroke="none" 
	d="
M249.998993,155.950012 
	C255.703232,154.875183 258.944336,156.661057 260.263947,161.292389 
	C261.337860,165.061432 259.334320,168.942703 255.552704,170.419067 
	C251.702957,171.921997 247.772400,170.459839 245.902283,166.829086 
	C243.784668,162.717819 245.013992,159.177628 249.998993,155.950012 
z"/>
<path fill="#0878E5" opacity="1.000000" stroke="none" 
	d="
M401.985107,159.320297 
	C404.034790,163.942322 403.075928,167.455887 399.126221,169.904526 
	C395.713593,172.020203 392.275299,171.338043 389.640289,168.612549 
	C386.822571,165.698044 386.592621,162.143112 388.871155,158.652191 
	C391.838104,154.106674 397.241272,154.254486 401.985107,159.320297 
z"/>
<path fill="#0677E4" opacity="1.000000" stroke="none" 
	d="
M276.008118,206.145081 
	C280.293091,208.119675 282.150055,211.087601 281.117950,215.495956 
	C280.236633,219.260147 277.543610,221.185104 273.942108,221.347992 
	C270.322815,221.511719 267.581207,219.683624 266.257812,216.133499 
	C264.358765,211.039154 268.833740,204.193466 276.008118,206.145081 
z"/>
<path fill="#0878E5" opacity="1.000000" stroke="none" 
	d="
M321.865234,108.937256 
	C326.226715,107.851540 328.883179,109.549232 329.620758,113.385330 
	C330.278198,116.804672 328.256836,119.736259 324.939514,119.661232 
	C322.753662,119.611794 319.571991,117.512787 318.799896,115.556519 
	C318.177795,113.980270 320.497314,111.243050 321.865234,108.937256 
z"/>
<path fill="#0B7AE5" opacity="1.000000" stroke="none" 
	d="
M377.556976,166.541489 
	C374.672729,169.591507 371.384369,170.008469 369.106567,167.170959 
	C367.819489,165.567596 367.401672,161.784637 368.444550,160.210907 
	C369.480316,158.647949 373.159088,157.560806 375.108704,158.150330 
	C378.920868,159.303024 379.542725,162.644989 377.556976,166.541489 
z"/>
<path fill="#0B7AE5" opacity="1.000000" stroke="none" 
	d="
M270.143860,160.229919 
	C272.821533,159.322952 275.460236,158.042740 277.800629,158.455246 
	C279.086304,158.681839 280.858887,161.906815 280.620453,163.514130 
	C280.342682,165.386795 278.414093,167.609924 276.621460,168.467072 
	C275.278839,169.109024 272.136169,168.417404 271.369995,167.268875 
	C270.195404,165.508148 270.375366,162.843796 270.143860,160.229919 
z"/>
<path fill="#0677E4" opacity="1.000000" stroke="none" 
	d="
M363.512146,131.541046 
	C359.704529,134.954132 356.301056,135.078339 354.038788,132.173981 
	C351.923309,129.458084 352.578186,125.100342 355.785461,123.758698 
	C357.475830,123.051598 360.790771,122.975281 361.544617,123.982277 
	C362.966003,125.880951 363.065247,128.769424 363.512146,131.541046 
z"/>
<path fill="#0B7AE5" opacity="1.000000" stroke="none" 
	d="
M326.887451,217.042450 
	C322.983887,218.774933 319.896698,217.750092 318.983490,214.207779 
	C318.465515,212.198715 319.499786,208.564194 321.049622,207.585831 
	C322.656433,206.571518 326.454193,207.031250 328.008606,208.355133 
	C331.044464,210.940750 330.214752,214.260498 326.887451,217.042450 
z"/>
<path fill="#0677E4" opacity="1.000000" stroke="none" 
	d="
M287.701233,134.077728 
	C286.172882,131.751755 284.165863,129.518204 284.116882,127.242516 
	C284.086273,125.820534 286.879089,123.383362 288.640259,123.145714 
	C290.400391,122.908211 293.148560,124.356766 294.242249,125.920448 
	C297.027283,129.902374 293.789154,133.995148 287.701233,134.077728 
z"/>
<path fill="#0677E4" opacity="1.000000" stroke="none" 
	d="
M361.012970,203.064850 
	C356.853058,204.119522 353.558746,203.091309 353.188263,199.017654 
	C353.001221,196.961136 354.789825,193.589905 356.559387,192.818390 
	C358.237732,192.086655 361.868530,193.286697 363.196960,194.857910 
	C365.564972,197.658676 364.416290,200.784332 361.012970,203.064850 
z"/>
<path fill="#0677E4" opacity="1.000000" stroke="none" 
	d="
M284.303345,195.194061 
	C286.726837,191.956497 289.440826,190.853058 292.657318,193.189438 
	C295.304962,195.112625 296.275208,198.165161 294.172607,200.555984 
	C292.754150,202.168900 289.562561,203.403351 287.502502,203.014481 
	C283.723114,202.301056 283.053314,199.025131 284.303345,195.194061 
z"/>
<path fill="#2587E7" opacity="1.000000" stroke="none" 
	d="
M229.380325,325.617523 
	C230.324142,325.204315 231.062866,324.906891 231.623917,325.107178 
	C233.661865,325.834656 236.311554,326.236542 237.407791,327.731293 
	C238.151764,328.745728 236.684235,331.382050 235.977737,334.203583 
	C236.301376,334.892792 237.103683,336.601410 237.906006,338.310059 
	C237.570007,338.557770 237.233994,338.805511 236.897980,339.053253 
	C235.371445,337.033661 233.844894,335.014069 231.697845,332.173553 
	C231.159225,334.861328 230.781036,336.748505 230.402863,338.635712 
	C229.966476,338.639252 229.530090,338.642792 229.093704,338.646332 
	C229.093704,334.418091 229.093704,330.189880 229.380325,325.617523 
z"/>
<path fill="#2587E7" opacity="1.000000" stroke="none" 
	d="
M308.225983,336.532776 
	C307.484802,337.584473 306.906647,338.277039 306.328491,338.969604 
	C305.944214,338.770325 305.559906,338.571045 305.175629,338.371765 
	C307.110748,333.898315 309.045868,329.424866 310.981018,324.951416 
	C311.471008,324.919403 311.960999,324.887390 312.451019,324.855377 
	C314.372528,329.324005 316.294037,333.792633 317.819153,337.339417 
	C314.473633,336.925842 311.431305,336.549774 308.225983,336.532776 
z"/>
<path fill="#2889E7" opacity="1.000000" stroke="none" 
	d="
M465.056091,325.063049 
	C471.884644,325.511810 474.585907,327.857483 474.174316,332.608490 
	C473.771393,337.259857 470.113892,339.266144 462.458191,338.562653 
	C462.458191,334.622772 462.378052,330.593933 462.554596,326.576355 
	C462.577972,326.044098 463.907867,325.569275 465.056091,325.063049 
M465.593048,327.113403 
	C465.050110,330.253693 464.507141,333.393982 463.930511,336.729248 
	C468.585388,337.186096 471.625641,336.590973 471.987091,332.411774 
	C472.311005,328.666229 470.070129,326.978088 465.593048,327.113403 
z"/>
<path fill="#1B82E6" opacity="1.000000" stroke="none" 
	d="
M189.006439,326.104980 
	C187.772339,326.675293 186.400238,326.631165 185.264267,327.127502 
	C184.116959,327.628784 183.203735,328.665863 182.187958,329.468231 
	C182.474792,329.854462 182.761627,330.240662 183.048462,330.626862 
	C184.899323,330.869476 186.750168,331.112091 188.712570,331.369324 
	C187.830292,334.631165 181.166077,330.496582 183.007202,336.646423 
	C185.108444,336.865875 187.267487,337.091339 189.426544,337.316803 
	C189.414017,337.663635 189.401505,338.010437 189.388977,338.357239 
	C186.627533,338.357239 183.866074,338.357239 180.777283,338.357239 
	C180.777283,334.231323 180.777283,329.983154 180.777283,324.975067 
	C183.643997,325.238312 186.308014,325.482941 189.006439,326.104980 
z"/>
<path fill="#2889E7" opacity="1.000000" stroke="none" 
	d="
M338.372528,338.907104 
	C337.288361,334.525421 336.631195,330.171295 335.942322,325.607178 
	C339.699585,325.607178 342.408173,325.607178 345.116760,325.607178 
	C345.135986,326.030182 345.155243,326.453217 345.174469,326.876221 
	C343.336029,326.983124 341.497589,327.089996 339.243256,327.221039 
	C337.642456,332.946625 343.291107,329.713806 344.701324,331.664734 
	C344.272247,334.863373 337.285126,330.428192 339.091187,336.547607 
	C341.155853,336.790222 343.352081,337.048279 345.548309,337.306366 
	C345.567017,337.708221 345.585754,338.110077 345.604462,338.511932 
	C343.336151,338.652832 341.067841,338.793762 338.372528,338.907104 
z"/>
<path fill="#2889E7" opacity="1.000000" stroke="none" 
	d="
M213.365326,337.468994 
	C212.597366,333.285583 212.109299,329.402863 211.621231,325.520172 
	C212.291473,325.452179 212.961716,325.384216 213.631943,325.316223 
	C213.755249,327.792023 213.524796,330.358215 214.126266,332.711823 
	C214.527100,334.280243 216.114029,335.545563 217.170105,336.946503 
	C218.212311,335.545807 219.780365,334.277618 220.174500,332.713623 
	C220.778427,330.317169 220.573792,327.716980 220.712341,325.203247 
	C221.441483,325.288513 222.170639,325.373779 222.899780,325.459015 
	C222.240311,329.472137 221.997162,333.639435 220.610733,337.383362 
	C220.288788,338.252747 216.070618,337.679260 213.365326,337.468994 
z"/>
<path fill="#1B82E6" opacity="1.000000" stroke="none" 
	d="
M393.021484,327.474304 
	C393.017914,329.897552 393.643707,332.213348 392.835968,333.798828 
	C391.795776,335.840576 389.676208,338.543427 387.892517,338.642639 
	C386.227386,338.735321 383.515686,336.090607 382.850586,334.116455 
	C381.970520,331.504150 382.633881,328.371918 382.633881,325.463135 
	C383.108032,325.431976 383.582184,325.400848 384.056335,325.369690 
	C384.223785,327.414948 384.387360,329.460571 384.559753,331.505432 
	C384.761871,333.903534 384.237854,337.250366 387.916504,336.725861 
	C389.163513,336.548065 390.398102,333.544800 390.899506,331.638428 
	C391.410492,329.695465 391.012512,327.513428 392.145111,325.246552 
	C392.434631,325.845123 392.724182,326.443695 393.021484,327.474304 
z"/>
<path fill="#2E8CE7" opacity="1.000000" stroke="none" 
	d="
M415.747986,334.152039 
	C414.629974,330.003510 415.977173,327.191040 419.427948,325.603119 
	C422.059448,324.392181 424.611633,324.621735 426.440582,326.509949 
	C423.426575,327.578857 420.504547,328.088257 418.342255,329.649719 
	C417.514587,330.247375 417.745392,334.366272 418.677429,334.932434 
	C420.851379,336.253143 423.743011,336.392456 426.131165,336.959808 
	C423.548187,340.693695 419.369934,339.997681 415.747986,334.152039 
z"/>
<path fill="#2889E7" opacity="1.000000" stroke="none" 
	d="
M280.779114,331.183136 
	C283.722687,332.654449 285.349640,334.684082 283.097931,337.185822 
	C280.996338,339.520844 278.142578,340.049591 274.728760,337.009277 
	C277.571869,336.700562 279.654388,336.474426 282.055023,336.213745 
	C280.837433,331.885895 271.875763,332.475494 276.797821,326.269348 
	C277.737610,325.084351 280.777863,325.565247 282.898254,326.438385 
	C281.247040,327.099091 279.595825,327.759796 277.944611,328.420502 
	C278.771576,329.289337 279.598511,330.158173 280.779114,331.183136 
z"/>
<path fill="#2889E7" opacity="1.000000" stroke="none" 
	d="
M372.867310,330.934753 
	C374.443665,332.460693 376.147614,333.712219 376.632233,335.329193 
	C376.858551,336.084229 374.904480,338.155212 373.616241,338.534302 
	C372.000061,339.009949 370.053009,338.361298 368.248749,338.197876 
	C368.328522,337.680054 368.408325,337.162201 368.488098,336.644348 
	C369.181610,336.690948 369.911804,336.898254 370.560852,336.750122 
	C371.842712,336.457458 373.079681,335.968109 374.335205,335.560120 
	C373.510376,334.697449 372.837708,333.521149 371.831268,333.032776 
	C369.161530,331.737335 366.882446,330.140167 368.865997,327.016205 
	C370.660583,324.189789 373.373932,324.279114 376.178497,326.232849 
	C374.157959,327.137848 372.366150,327.940399 370.574371,328.742920 
	C371.214783,329.431946 371.855194,330.121002 372.867310,330.934753 
z"/>
<path fill="#1E84E6" opacity="1.000000" stroke="none" 
	d="
M439.389496,325.090881 
	C440.353607,325.311310 440.903809,325.523468 441.515472,325.759277 
	C440.363098,328.881348 433.917023,324.361053 435.205933,330.608337 
	C437.170624,330.865784 439.006134,331.106293 440.965759,331.363098 
	C440.076508,334.608612 433.396667,330.511993 435.345947,336.684021 
	C437.443237,336.874847 439.611603,337.072113 441.779968,337.269379 
	C441.781769,337.706726 441.783539,338.144043 441.785309,338.581390 
	C439.049927,338.705994 436.314545,338.830597 433.230530,338.971100 
	C433.230530,334.277435 433.230530,330.045258 433.230530,325.082581 
	C435.148010,325.082581 437.061798,325.082581 439.389496,325.090881 
z"/>
<path fill="#1E84E6" opacity="1.000000" stroke="none" 
	d="
M450.009308,328.150879 
	C451.785309,329.757446 453.635620,330.939270 455.711670,332.265259 
	C455.131836,334.677673 448.387665,330.459015 450.279816,336.644623 
	C452.359741,336.849670 454.548859,337.065460 456.737976,337.281281 
	C456.747437,337.702087 456.756927,338.122894 456.766388,338.543701 
	C454.047729,338.690643 451.329041,338.837555 448.226013,339.005249 
	C448.226013,334.336761 448.226013,330.110687 448.226013,325.599243 
	C450.866699,325.599243 453.582916,325.599243 456.299164,325.599243 
	C456.322571,325.905579 456.345978,326.211945 456.369385,326.518280 
	C454.274139,326.920898 452.178894,327.323517 450.009308,328.150879 
z"/>
<path fill="#1E84E6" opacity="1.000000" stroke="none" 
	d="
M248.022797,327.075806 
	C247.081223,327.389526 246.262863,327.589203 246.110046,328.023193 
	C245.859802,328.733917 246.042328,329.597046 246.042328,330.589905 
	C248.080414,330.843628 249.948074,331.076111 251.912704,331.320679 
	C251.217636,334.740204 244.384995,330.431305 246.257599,336.603607 
	C248.327454,336.822021 250.532104,337.054626 252.736755,337.287231 
	C252.752197,337.695831 252.767639,338.104401 252.783081,338.512970 
	C250.073456,338.682526 247.363815,338.852112 244.244415,339.047302 
	C244.244415,334.260742 244.244415,329.918213 244.244415,325.559509 
	C247.067093,325.559509 249.677750,325.559509 252.288422,325.559509 
	C252.324173,325.929779 252.359940,326.300049 252.395691,326.670319 
	C251.078766,326.802521 249.761841,326.934753 248.022797,327.075806 
z"/>
<path fill="#2889E7" opacity="1.000000" stroke="none" 
	d="
M197.729034,335.075623 
	C200.480881,335.942657 202.980789,336.489075 206.662094,337.293671 
	C204.156357,337.920410 201.551483,339.445496 200.275864,338.699005 
	C198.008408,337.372162 195.436569,334.837067 195.081284,332.490997 
	C194.769562,330.432465 196.825867,327.308807 198.739746,325.807220 
	C200.898651,324.113464 203.927383,324.284271 206.064896,327.373199 
	C197.447845,326.966248 196.308395,327.994507 197.729034,335.075623 
z"/>
<path fill="#2587E7" opacity="1.000000" stroke="none" 
	d="
M399.012115,334.146606 
	C398.253052,330.101868 399.142822,326.858368 402.887207,325.673462 
	C404.982727,325.010345 407.513794,325.723572 409.914948,326.702911 
	C405.610138,327.098267 400.642365,325.788696 400.971313,332.620514 
	C401.161469,336.568939 403.740112,337.561371 409.674133,336.224304 
	C407.114594,340.756866 402.781219,340.050598 399.012115,334.146606 
z"/>
<path fill="#2587E7" opacity="1.000000" stroke="none" 
	d="
M299.696960,337.993042 
	C293.853943,339.744904 289.971252,337.756378 289.191956,332.963562 
	C288.498535,328.698914 291.145081,325.989410 294.518890,326.282288 
	C293.584229,328.248077 291.555634,330.565857 291.621948,332.822083 
	C291.726990,336.397430 294.491974,337.827393 298.050507,336.597412 
	C299.415894,336.125458 300.921875,334.861206 299.696960,337.993042 
z"/>
<path fill="#1E84E6" opacity="1.000000" stroke="none" 
	d="
M168.948181,330.104187 
	C170.448090,330.897156 171.937592,331.207611 172.761459,332.119476 
	C173.637268,333.088806 174.511368,334.796234 174.224274,335.871033 
	C173.941330,336.930267 172.203247,337.600861 172.192093,337.609375 
	C171.158096,335.647797 170.788040,333.702850 169.686325,333.104004 
	C167.064621,331.679016 164.733917,330.189819 166.588104,327.053040 
	C168.354172,324.065338 171.156830,324.524506 173.915710,325.964783 
	C173.236038,329.162018 167.158844,324.120697 168.948181,330.104187 
z"/>
<path fill="#2E8CE7" opacity="1.000000" stroke="none" 
	d="
M330.216370,336.978027 
	C330.404785,337.657806 330.233948,338.807312 329.975464,338.827393 
	C328.013733,338.979553 326.034851,338.910645 323.701996,338.910645 
	C323.701996,334.208496 323.701996,329.789246 323.701996,325.369965 
	C324.145721,325.342529 324.589447,325.315094 325.033173,325.287659 
	C325.241333,328.861847 325.449524,332.436005 325.689301,336.552582 
	C327.025421,336.673035 328.420959,336.798859 330.216370,336.978027 
z"/>
<path fill="#127DE5" opacity="1.000000" stroke="none" 
	d="
M263.786041,137.731964 
	C265.872894,135.159912 268.128418,134.538406 270.069092,137.108871 
	C270.761841,138.026398 270.805878,140.137115 270.202820,141.130814 
	C269.604553,142.116623 267.051819,143.171616 266.691772,142.821747 
	C265.379395,141.546661 264.625549,139.696732 263.786041,137.731964 
z"/>
<path fill="#1B82E6" opacity="1.000000" stroke="none" 
	d="
M297.947937,216.900787 
	C300.030121,217.348618 302.135742,217.607071 303.368011,218.781738 
	C303.872589,219.262726 302.903320,222.218903 301.826874,223.118423 
	C301.046478,223.770538 297.922638,223.258087 297.703644,222.623260 
	C297.131012,220.963501 297.578796,218.951706 297.947937,216.900787 
z"/>
<path fill="#1B82E6" opacity="1.000000" stroke="none" 
	d="
M382.421814,136.601471 
	C383.192871,138.550171 383.995056,140.366791 383.855103,142.107666 
	C383.811981,142.644104 380.904602,143.664246 379.839844,143.212082 
	C378.680298,142.719681 377.191956,139.954727 377.494141,139.605316 
	C378.671844,138.243835 380.502411,137.447067 382.421814,136.601471 
z"/>
<path fill="#127DE5" opacity="1.000000" stroke="none" 
	d="
M384.155334,185.717453 
	C383.278656,187.666946 382.505371,189.533829 381.143250,190.730408 
	C380.781860,191.047897 377.927948,189.580994 377.463135,188.430542 
	C377.001556,187.288086 378.019714,184.275864 378.542328,184.238678 
	C380.338043,184.110916 382.200928,184.927292 384.155334,185.717453 
z"/>
<path fill="#0F7CE5" opacity="1.000000" stroke="none" 
	d="
M346.554626,102.870102 
	C348.471130,103.823303 350.323608,104.654488 351.452911,106.064789 
	C351.778442,106.471352 350.278076,109.245857 349.148773,109.658150 
	C348.007568,110.074799 345.103821,109.020645 345.046173,108.413795 
	C344.878754,106.651596 345.751068,104.790634 346.554626,102.870102 
z"/>
<path fill="#127DE5" opacity="1.000000" stroke="none" 
	d="
M323.279602,130.222534 
	C326.437012,130.384613 328.244049,131.887436 327.303589,134.647842 
	C326.899902,135.832748 324.724731,136.781860 323.210968,137.061447 
	C322.484070,137.195679 320.575165,135.386932 320.687073,134.700241 
	C320.938782,133.156097 322.117828,131.763123 323.279602,130.222534 
z"/>
<path fill="#127DE5" opacity="1.000000" stroke="none" 
	d="
M297.291809,104.548370 
	C299.290222,103.850258 301.194977,103.092308 302.941101,103.361908 
	C303.542999,103.454849 304.429657,106.404991 303.947723,107.509590 
	C303.454132,108.640991 300.582733,110.024612 300.248016,109.709389 
	C298.896729,108.436852 298.122955,106.551071 297.291809,104.548370 
z"/>
<path fill="#0B7AE5" opacity="1.000000" stroke="none" 
	d="
M302.425415,180.396515 
	C304.104614,181.446686 305.692841,182.451935 306.652191,183.879730 
	C306.951477,184.325211 305.724030,186.612320 304.890198,186.817825 
	C303.538300,187.151031 301.934357,186.461731 300.436859,186.204132 
	C300.988525,184.307632 301.540161,182.411133 302.425415,180.396515 
z"/>
<path fill="#0F7CE5" opacity="1.000000" stroke="none" 
	d="
M348.549164,223.713348 
	C346.654663,222.842712 344.791077,222.041275 343.725342,220.635101 
	C343.372284,220.169250 344.804962,217.455704 345.908905,217.027679 
	C347.047455,216.586243 349.995789,217.592987 350.031555,218.112167 
	C350.153931,219.889114 349.344879,221.730194 348.549164,223.713348 
z"/>
<path fill="#0F7CE5" opacity="1.000000" stroke="none" 
	d="
M347.714539,182.053894 
	C347.293030,183.948029 347.029724,185.936646 345.897766,187.004333 
	C345.362488,187.509232 342.533752,186.657272 341.900757,185.674820 
	C341.295532,184.735474 341.795380,181.843475 342.509674,181.557297 
	C343.923187,180.990952 345.819672,181.629959 347.714539,182.053894 
z"/>
<path fill="#0F7CE5" opacity="1.000000" stroke="none" 
	d="
M353.838196,166.818512 
	C352.295441,165.403259 350.887573,164.039078 350.142670,162.377670 
	C349.964874,161.981125 351.928894,159.960068 353.035797,159.836975 
	C354.161957,159.711716 356.554443,161.240326 356.470306,161.639420 
	C356.093658,163.425537 355.030975,165.067017 353.838196,166.818512 
z"/>
<path fill="#127DE5" opacity="1.000000" stroke="none" 
	d="
M326.921722,194.738953 
	C325.063965,195.163681 323.290222,195.673859 321.768036,195.259567 
	C321.077576,195.071671 320.190094,192.552231 320.611542,191.963531 
	C321.521210,190.692856 323.219025,189.986374 324.594391,189.049072 
	C325.432373,190.848450 326.270355,192.647812 326.921722,194.738953 
z"/>
<path fill="#0F7CE5" opacity="1.000000" stroke="none" 
	d="
M291.724792,161.085266 
	C293.823456,160.925491 295.760773,160.815109 297.490936,161.361130 
	C297.859772,161.477524 297.977325,164.349182 297.294647,165.278946 
	C296.632935,166.180130 293.857758,166.854736 293.629822,166.521469 
	C292.602081,165.018982 292.149414,163.123138 291.724792,161.085266 
z"/>
<path fill="#0F7CE5" opacity="1.000000" stroke="none" 
	d="
M267.681091,190.052094 
	C265.912231,188.977646 264.259735,188.011185 263.281769,186.582886 
	C262.950073,186.098465 264.069855,183.872925 264.978149,183.475372 
	C266.120789,182.975250 268.166779,183.002518 269.052277,183.734528 
	C271.902618,186.090790 270.847992,188.275543 267.681091,190.052094 
z"/>
<path fill="#0F7CE5" opacity="1.000000" stroke="none" 
	d="
M303.106323,138.895737 
	C304.570282,140.245193 306.130005,141.490753 306.512451,143.029007 
	C306.679077,143.699203 304.536194,145.539368 303.243622,145.779510 
	C302.287384,145.957138 299.940948,144.087524 300.062073,143.681824 
	C300.570709,141.978348 301.774750,140.482513 303.106323,138.895737 
z"/>
<path fill="#0F7CE5" opacity="1.000000" stroke="none" 
	d="
M348.249329,142.750305 
	C346.713684,144.014008 345.286530,145.426941 343.721741,145.600723 
	C343.015686,145.679138 341.451721,143.323608 341.374176,142.007721 
	C341.317505,141.045929 343.493286,138.958054 343.911469,139.138565 
	C345.539917,139.841461 346.864258,141.248886 348.249329,142.750305 
z"/>
<path fill="#1B82E6" opacity="1.000000" stroke="none" 
	d="
M361.742615,177.088364 
	C363.287506,178.014709 364.529419,179.082825 365.771301,180.150909 
	C364.490631,180.819519 363.209991,181.488113 361.929352,182.156738 
	C361.766113,180.514542 361.602875,178.872330 361.742615,177.088364 
z"/>
<path fill="#1E84E6" opacity="1.000000" stroke="none" 
	d="
M283.617920,149.082108 
	C281.438293,146.968185 281.848877,145.127396 284.175842,144.282761 
	C284.998291,143.984238 286.453918,145.430069 287.620453,146.079514 
	C286.390625,147.130447 285.160828,148.181366 283.617920,149.082108 
z"/>
<path fill="#1B82E6" opacity="1.000000" stroke="none" 
	d="
M337.529297,203.632401 
	C336.889740,200.701141 338.072998,199.301392 340.585632,200.001602 
	C341.449310,200.242294 342.619476,202.423599 342.321381,203.223251 
	C341.424805,205.628693 339.601807,205.853210 337.529297,203.632401 
z"/>
<path fill="#EDEEF3" opacity="1.000000" stroke="none" 
	d="
M177.092896,289.008057 
	C176.602112,303.787659 170.721466,307.604523 152.121552,305.389191 
	C152.121552,294.905914 152.121552,284.373230 152.121552,273.839142 
	C170.521210,271.193817 176.942886,275.571289 177.092896,289.008057 
z"/>
<path fill="#EFF0F5" opacity="1.000000" stroke="none" 
	d="
M469.749451,298.338684 
	C466.184204,305.172882 462.281342,307.087585 454.421997,306.163788 
	C448.657440,305.486206 445.024780,302.163147 443.871521,295.353058 
	C443.222565,291.520782 443.187714,287.390137 443.863861,283.568665 
	C445.228729,275.854309 449.759735,272.524963 457.471802,272.643860 
	C464.952271,272.759247 469.724701,276.510956 470.613861,284.178497 
	C471.136475,288.685089 470.180847,293.363098 469.749451,298.338684 
z"/>
<path fill="#E8EBF0" opacity="1.000000" stroke="none" 
	d="
M356.649597,290.011047 
	C352.749298,290.011719 349.303345,290.011719 345.616577,290.011719 
	C345.616577,284.262268 345.616577,279.019897 345.616577,273.145599 
	C349.433197,273.145599 353.031952,273.080841 356.627502,273.159851 
	C363.009827,273.300140 366.495483,276.037445 366.867584,281.077942 
	C367.229614,285.981964 363.665619,289.242554 356.649597,290.011047 
z"/>
<path fill="#EBEDF3" opacity="1.000000" stroke="none" 
	d="
M514.281250,283.345642 
	C512.986694,288.022125 509.780640,289.755432 505.665039,289.951599 
	C501.715363,290.139832 497.749695,289.992249 493.437073,289.992249 
	C493.437073,284.420227 493.437073,279.078064 493.437073,273.164429 
	C497.469482,273.164429 501.399841,273.004883 505.312469,273.200439 
	C511.796387,273.524475 514.190674,276.222168 514.281250,283.345642 
z"/>
<path fill="#E4E7EE" opacity="1.000000" stroke="none" 
	d="
M242.605637,284.566406 
	C243.618210,281.124420 244.488098,278.060913 245.357986,274.997406 
	C245.714294,274.993835 246.070587,274.990295 246.426895,274.986755 
	C248.007126,280.418243 249.587372,285.849731 251.347992,291.901215 
	C247.580292,292.900696 244.050491,293.837067 239.718109,294.986328 
	C240.764160,291.159546 241.613556,288.052185 242.605637,284.566406 
z"/>
<path fill="#E4E7EE" opacity="1.000000" stroke="none" 
	d="
M307.205353,288.238312 
	C308.629700,283.400604 309.945068,278.950958 311.641388,273.212555 
	C313.618225,279.972900 315.261810,285.593567 317.095642,291.864868 
	C313.445557,292.847412 309.912048,293.798615 305.653625,294.944916 
	C306.241608,292.369843 306.668976,290.498108 307.205353,288.238312 
z"/>
<path fill="#E4E7EE" opacity="1.000000" stroke="none" 
	d="
M466.004242,327.087616 
	C470.070129,326.978088 472.311005,328.666229 471.987091,332.411774 
	C471.625641,336.590973 468.585388,337.186096 463.930511,336.729248 
	C464.507141,333.393982 465.050110,330.253693 466.004242,327.087616 
z"/>
</svg>